<svg id="Layer_1" data-name="Layer 1" xmlns="http://www.w3.org/2000/svg" xmlns:xlink="http://www.w3.org/1999/xlink" viewBox="0 0 500 500"><defs><style>.cls-1{fill:none;}.cls-2,.cls-4{fill:#fff;}.cls-3{fill:#134678;}.cls-4{font-size:51px;font-family:AzoSans-Bold, Azo Sans;font-weight:700;}.cls-5{clip-path:url(#clip-path);}.cls-6{clip-path:url(#clip-path-2);}.cls-7{fill:#c94543;}.cls-8{clip-path:url(#clip-path-3);}.cls-9{fill:#124677;}.cls-10{fill:#cb4644;}.cls-11{fill:#ecaa20;}.cls-12{fill:#a1cfca;}</style><clipPath id="clip-path"><rect class="cls-1" x="136.23" y="137.79" width="227.53" height="220"/></clipPath><clipPath id="clip-path-2"><rect class="cls-1" x="136.23" y="137.79" width="227.53" height="220"/></clipPath><clipPath id="clip-path-3"><rect class="cls-1" x="134.5" y="43.59" width="231" height="72.95"/></clipPath></defs><path class="cls-2" d="M251.64,493.22A243.75,243.75,0,0,1,79.28,77.11,243.75,243.75,0,0,1,424,421.83,242.15,242.15,0,0,1,251.64,493.22Z"/><path class="cls-1" d="M250.42,494A243.75,243.75,0,0,1,78.06,77.87,243.75,243.75,0,0,1,422.78,422.58,242.16,242.16,0,0,1,250.42,494Z"/><path class="cls-3" d="M250.42,11.72c131.72,0,238.51,106.78,238.51,238.51s-106.79,238.5-238.51,238.5S11.91,382,11.91,250.23,118.7,11.72,250.42,11.72m0-10.49A248.92,248.92,0,0,0,74.35,426.29,249.06,249.06,0,1,0,250.42,1.23Z"/><path class="cls-3" d="M487.79,227.62,450.7,251.08l-48.13-23.46h-.05a155.58,155.58,0,0,1,1.72,23.12,153.75,153.75,0,1,1-307.5,0,155.58,155.58,0,0,1,1.72-23.12h-.6L51.37,251.25,13,227.62H7.82q-1.06,11.46-1.08,23.12A243.75,243.75,0,0,0,422.85,423.1a242.13,242.13,0,0,0,71.39-172.36q0-11.66-1.08-23.12Z"/><text class="cls-4" transform="matrix(-0.2, 0.88, -0.98, -0.22, 39.17, 196.7)"> </text><text class="cls-4" transform="matrix(-0.16, 0.89, -0.98, -0.18, 36.37, 209.61)"> </text><text class="cls-4" transform="matrix(-0.1, 0.89, -0.99, -0.11, 34.34, 221.68)"> </text><text class="cls-4" transform="matrix(-0.05, 0.9, -1, -0.06, 33.1, 233.15)"> </text><text class="cls-4" transform="translate(32.48 244.65) rotate(90.17) scale(0.9 1)"> </text><text class="cls-4" transform="matrix(0.05, 0.9, -1, 0.05, 32.46, 256.21)"> </text><text class="cls-4" transform="translate(32.41 269.1) rotate(80.15) scale(0.9 1)">O</text><text class="cls-4" transform="translate(40.49 310.93) rotate(70) scale(0.9 1)">P</text><text class="cls-4" transform="matrix(0.43, 0.79, -0.88, 0.47, 52.36, 342.27)">E</text><text class="cls-4" transform="matrix(0.55, 0.71, -0.79, 0.61, 66.69, 368.96)">N</text><text class="cls-4" transform="matrix(0.63, 0.64, -0.71, 0.7, 91.88, 399.95)"> </text><text class="cls-4" transform="translate(101.74 410.21) rotate(39.43) scale(0.9 1)">S</text><text class="cls-4" transform="translate(125.73 430.05) rotate(29.72) scale(0.9 1)">O</text><text class="cls-4" transform="matrix(0.85, 0.29, -0.32, 0.95, 163.3, 450.75)">U</text><text class="cls-4" transform="matrix(0.89, 0.13, -0.14, 0.99, 200.62, 463.04)">R</text><text class="cls-4" transform="translate(234.43 467.98) rotate(0.04) scale(0.9 1)">C</text><text class="cls-4" transform="matrix(0.89, -0.14, 0.15, 0.99, 269.97, 467.47)">E</text><text class="cls-4" transform="matrix(0.87, -0.22, 0.25, 0.97, 298.63, 462.57)"> </text><text class="cls-4" transform="translate(312.94 459.4) rotate(-21.34) scale(0.9 1)">A</text><text class="cls-4" transform="matrix(0.78, -0.45, 0.51, 0.86, 348.73, 444.66)">L</text><text class="cls-4" transform="translate(374.02 429.55) rotate(-38.06) scale(0.9 1)">L</text><text class="cls-4" transform="matrix(0.65, -0.63, 0.7, 0.72, 396.45, 411.36)">I</text><text class="cls-4" transform="translate(409.13 399.69) rotate(-51.32) scale(0.9 1)">A</text><text class="cls-4" transform="translate(433.41 368.75) rotate(-61.95) scale(0.9 1)">N</text><text class="cls-4" transform="matrix(0.28, -0.86, 0.95, 0.31, 452.09, 332.32)">C</text><text class="cls-4" transform="matrix(0.16, -0.89, 0.98, 0.18, 462.24, 298.59)">E</text><g id="Artwork_6" data-name="Artwork 6"><g class="cls-5"><g class="cls-6"><path class="cls-7" d="M288.09,167.73l-1.55-5.11a35.39,35.39,0,0,0-34.15-24.83h-4.77a35.27,35.27,0,0,0-34.14,24.84L205.93,186a22.83,22.83,0,1,0,16.33,5.27l7-21.66a21,21,0,0,1,20.2-14.71l1.09,0A21.22,21.22,0,0,1,263.08,159a21,21,0,0,1,7.26,9.52,33.31,33.31,0,0,1,17.75-.75"/><path class="cls-7" d="M344.53,264.18l4.31-3.12A35.35,35.35,0,0,0,362,220.91l-1.48-4.54a35.37,35.37,0,0,0-34.17-24.81l-24.55,0a22.83,22.83,0,1,0,0,17.16l22.76,0a21,21,0,0,1,20.23,14.69l.32,1a20.93,20.93,0,0,1-6.78,23,33.27,33.27,0,0,1,6.23,16.72"/><path class="cls-7" d="M309.76,289.81l7.07,21.62a21,21,0,0,1-7.69,23.78l-.88.63a20.92,20.92,0,0,1-24,.68,34.43,34.43,0,0,1-3.37,4,33.64,33.64,0,0,1-10.64,7.16l4.33,3.15a35.39,35.39,0,0,0,42.23,0l3.87-2.8a35.33,35.33,0,0,0,13-40.19L326,284.48a22.83,22.83,0,1,0-16.28,5.33"/><path class="cls-7" d="M168,302.74l-1.65,5.07a35.31,35.31,0,0,0,13,40.17l3.87,2.81a35.32,35.32,0,0,0,42.24,0l19.85-14.48a22.82,22.82,0,1,0-10.12-13.87l-18.4,13.42a21,21,0,0,1-25,0l-.87-.63a21,21,0,0,1-8.05-22.62,33.32,33.32,0,0,1-13.24-8.13c-.55-.56-1.1-1.15-1.63-1.75"/><path class="cls-7" d="M179.07,191.58h-5.35a35.42,35.42,0,0,0-34.19,24.81l-1.46,4.54a35.33,35.33,0,0,0,13.08,40.15L171,275.45a23.47,23.47,0,0,0-.66,5.47,22.85,22.85,0,1,0,10.71-19.34l-18.42-13.34a21,21,0,0,1-7.75-23.77l.34-1a20.94,20.94,0,0,1,19-14.66,33.14,33.14,0,0,1,4.81-17.21"/></g></g></g><g id="logo_rgb"><g class="cls-8"><g class="cls-8"><path class="cls-9" d="M175,84.14c-2.11-5.34-7.15-8.76-13.69-8.76-8.75,0-14.69,6.24-14.69,15s5.94,15,14.69,15c6.54,0,11.58-3.42,13.69-8.76H187c-2.41,11.77-12.27,19.93-25.76,19.93-15.69,0-26.76-11.07-26.76-26.17s11.07-26.16,26.76-26.16c13.49,0,23.35,8.15,25.76,19.93Z"/><path class="cls-9" d="M243.25,90c0,16.1-10.87,26.56-26.57,26.56s-26.76-11.06-26.76-26.16c0-17.6,12.68-26.16,24.55-26.16,7.44,0,13.38,3.22,16.6,8.25h.2V44.26h12Zm-12,.4c0-8.75-5.83-15-14.59-15S202,81.62,202,90.37s5.94,15,14.69,15,14.59-6.24,14.59-15"/><rect class="cls-9" x="251.44" y="65.52" width="11.97" height="49.7"/><path class="cls-9" d="M297.35,79.81c-.3-3-3.12-5.13-7.75-5.13-5.33,0-8,2.41-8,5.73,0,8.76,28.68-.6,28.68,19.83,0,9.45-8.15,16.3-20.83,16.3s-20.62-6.75-20.93-16h12.08c.1,3.32,3,5.53,8.65,5.53,6.34,0,9-2.41,9-5.83,0-8.76-28.68,1.1-28.68-19.83,0-9.35,7.75-16.2,19.82-16.2s19.52,6.85,19.82,15.6Z"/><path class="cls-9" d="M353.43,84.14c-2.12-5.34-7.15-8.76-13.69-8.76-8.75,0-14.69,6.24-14.69,15s5.94,15,14.69,15c6.54,0,11.57-3.42,13.69-8.76H365.5c-2.41,11.77-12.28,19.93-25.76,19.93-15.69,0-26.76-11.07-26.76-26.17s11.07-26.16,26.76-26.16c13.48,0,23.35,8.15,25.76,19.93Z"/><path class="cls-9" d="M265.54,51.69a8.11,8.11,0,1,1-8.11-8.1,8.11,8.11,0,0,1,8.11,8.1"/><path class="cls-10" d="M289.85,51.69a8.11,8.11,0,1,1-8.1-8.1,8.11,8.11,0,0,1,8.1,8.1"/><path class="cls-11" d="M314.17,51.69a8.11,8.11,0,1,1-8.11-8.1,8.11,8.11,0,0,1,8.11,8.1"/><path class="cls-12" d="M338.48,51.69a8.11,8.11,0,1,1-8.1-8.1,8.11,8.11,0,0,1,8.1,8.1"/></g></g></g></svg>