<?xml version="1.0" encoding="UTF-8"?>
<svg width="188px" height="60px" viewBox="0 0 188 60" version="1.1" xmlns="http://www.w3.org/2000/svg" xmlns:xlink="http://www.w3.org/1999/xlink">
    <!-- Generator: Sketch 50.2 (55047) - http://www.bohemiancoding.com/sketch -->
    <title>logo</title>
    <desc>Created with Sketch.</desc>
    <defs></defs>
    <g id="Symbols" stroke="none" stroke-width="1" fill="none" fill-rule="evenodd">
        <g id="Header" transform="translate(-70.000000, -23.000000)">
            <g id="Group-2" transform="translate(70.000000, 23.000000)">
                <g id="logo">
                    <g id="Group" transform="translate(0.461243, 17.263616)" fill="#0F4678" fill-rule="nonzero">
                        <path d="M32.7566807,16.4295439 C31.0453727,12.1099409 26.9712999,9.34001556 21.6745117,9.34001556 C14.5862172,9.34001556 9.77802158,14.3925075 9.77802158,21.480802 C9.77802158,28.5703303 14.5862172,33.6228222 21.6745117,33.6228222 C26.9712999,33.6228222 31.0453727,30.851663 32.7566807,26.5332939 L42.5347023,26.5332939 C40.579098,36.0670191 32.5938165,42.666721 21.6745117,42.666721 C8.96370054,42.666721 0,33.7030205 0,21.480802 C0,9.25858346 8.96370054,0.296116742 21.6745117,0.296116742 C32.5938165,0.296116742 40.579098,6.89581862 42.5347023,16.4295439 L32.7566807,16.4295439 Z" id="Shape"></path>
                    </g>
                    <g id="Group" transform="translate(44.878754, 1.104538)" fill="#0F4678" fill-rule="nonzero">
                        <path d="M33.9522521,37.6389055 C33.9522521,30.5493772 29.2267224,25.4981191 22.1371941,25.4981191 C15.0476658,25.4981191 10.240704,30.5493772 10.240704,37.6389055 C10.240704,44.7284338 15.0476658,49.7796919 22.1371941,49.7796919 C29.2267224,49.7796919 33.9522521,44.7284338 33.9522521,37.6389055 Z M43.6488416,37.3131771 C43.6488416,50.3509505 34.849239,58.8248246 22.1371941,58.8248246 C9.42638295,58.8248246 0.462682409,49.861124 0.462682409,37.6389055 C0.462682409,23.3796506 10.7292966,16.4542203 20.344454,16.4542203 C26.3741311,16.4542203 31.1823267,19.0612814 33.7893879,23.1353543 L33.9522521,23.1353543 L33.9522521,0.296116742 L43.6488416,0.296116742 L43.6488416,37.3131771 Z" id="Shape"></path>
                    </g>
                    <g id="Group" transform="translate(94.231544, 18.494475)" fill="#0F4678">
                        <rect id="Rectangle-path" x="0.934001556" y="0.122148156" width="9.69658947" height="40.2521358"></rect>
                    </g>
                    <g id="Group" transform="translate(109.037382, 17.263616)" fill="#0F4678" fill-rule="nonzero">
                        <path d="M23.3056214,12.9254958 C23.0613251,10.4812988 20.7799924,8.76999083 17.0316479,8.76999083 C12.7132788,8.76999083 10.5948103,10.7255952 10.5948103,13.4140884 C10.5948103,20.5036167 33.8177657,12.9254958 33.8177657,29.4660834 C33.8177657,37.1256365 27.21683,42.666721 16.9502158,42.666721 C6.68360163,42.666721 0.246763951,37.2070686 0.00123381976,29.7116136 L9.7792554,29.7116136 C9.8606875,32.4001068 12.2234523,34.1928469 16.7873516,34.1928469 C21.9212756,34.1928469 24.0385103,32.2372426 24.0385103,29.4660834 C24.0385103,22.3777889 0.816788679,30.3630704 0.816788679,13.4140884 C0.816788679,5.83720127 7.09076215,0.296116742 16.8687837,0.296116742 C26.6468053,0.296116742 32.6764825,5.83720127 32.9207788,12.9254958 L23.3056214,12.9254958 Z" id="Shape"></path>
                    </g>
                    <g id="Group" transform="translate(144.818155, 17.263616)" fill="#0F4678" fill-rule="nonzero">
                        <path d="M32.9368184,16.4295439 C31.2255104,12.1099409 27.1514376,9.34001556 21.8558832,9.34001556 C14.765121,9.34001556 9.95815926,14.3925075 9.95815926,21.480802 C9.95815926,28.5703303 14.765121,33.6228222 21.8558832,33.6228222 C27.1514376,33.6228222 31.2255104,30.851663 32.9368184,26.5332939 L42.71484,26.5332939 C40.7592357,36.0670191 32.7739542,42.666721 21.8558832,42.666721 C9.14383822,42.666721 0.180137685,33.7030205 0.180137685,21.480802 C0.180137685,9.25858346 9.14383822,0.296116742 21.8558832,0.296116742 C32.7739542,0.296116742 40.7592357,6.89581862 42.71484,16.4295439 L32.9368184,16.4295439 Z" id="Shape"></path>
                    </g>
                    <g id="Group" transform="translate(92.997725, 0.262617)" fill="#0F4678" fill-rule="nonzero">
                        <path d="M13.5806541,7.15615459 C13.5806541,10.781117 10.6416954,13.7200757 7.01673296,13.7200757 C3.39177051,13.7200757 0.452811851,10.781117 0.452811851,7.15615459 C0.452811851,3.53119215 3.39177051,0.592233483 7.01673296,0.592233483 C10.6416954,0.592233483 13.5806541,3.53119215 13.5806541,7.15615459" id="Shape"></path>
                    </g>
                    <g id="Group" transform="translate(112.738841, 0.262617)" fill="#CB4543" fill-rule="nonzero">
                        <path d="M13.5313013,7.15615459 C13.5313013,10.781117 10.5923426,13.7200757 6.96738017,13.7200757 C3.34241772,13.7200757 0.403459061,10.781117 0.403459061,7.15615459 C0.403459061,3.53119215 3.34241772,0.592233483 6.96738017,0.592233483 C10.5923426,0.592233483 13.5313013,3.53119215 13.5313013,7.15615459" id="Shape"></path>
                    </g>
                    <g id="Group" transform="translate(132.479957, 0.262617)" fill="#EBA921" fill-rule="nonzero">
                        <path d="M13.4819485,7.15615459 C13.4819485,10.781117 10.5429898,13.7200757 6.91802738,13.7200757 C3.29306493,13.7200757 0.35410627,10.781117 0.35410627,7.15615459 C0.35410627,3.53119215 3.29306493,0.592233483 6.91802738,0.592233483 C10.5429898,0.592233483 13.4819485,3.53119215 13.4819485,7.15615459" id="Shape"></path>
                    </g>
                    <g id="Group" transform="translate(152.221073, 0.262617)" fill="#9DCFCA" fill-rule="nonzero">
                        <path d="M13.4325957,7.15615459 C13.4325957,10.781117 10.493637,13.7200757 6.86867459,13.7200757 C3.24371214,13.7200757 0.30475348,10.781117 0.30475348,7.15615459 C0.30475348,3.53119215 3.24371214,0.592233483 6.86867459,0.592233483 C10.493637,0.592233483 13.4325957,3.53119215 13.4325957,7.15615459" id="Shape"></path>
                    </g>
                </g>
            </g>
        </g>
    </g>
</svg>