<?xml version="1.0" encoding="UTF-8"?>
<svg width="152px" height="48px" viewBox="0 0 152 48" version="1.1" xmlns="http://www.w3.org/2000/svg" xmlns:xlink="http://www.w3.org/1999/xlink">
    <!-- Generator: Sketch 50.2 (55047) - http://www.bohemiancoding.com/sketch -->
    <title>logo-white</title>
    <desc>Created with Sketch.</desc>
    <defs>
        <polygon id="path-1" points="0.001 0.5724 34.5592 0.5724 34.5592 35 0.001 35"></polygon>
        <polygon id="path-3" points="0.001 48 152 48 152 0 0.001 0"></polygon>
    </defs>
    <g id="Symbols" stroke="none" stroke-width="1" fill="none" fill-rule="evenodd">
        <g id="Footer" transform="translate(-70.000000, -45.000000)">
            <g id="Group" transform="translate(70.000000, 45.000000)">
                <g id="logo-white">
                    <g id="Group-103" transform="translate(0.000000, 13.000000)">
                        <mask id="mask-2" fill="white">
                            <use xlink:href="#path-1"></use>
                        </mask>
                        <g id="Clip-102"></g>
                        <path d="M26.6152,13.6814 C25.2252,10.1724 21.9142,7.9214 17.6112,7.9214 C11.8512,7.9214 7.9442,12.0254 7.9442,17.7854 C7.9442,23.5454 11.8512,27.6514 17.6112,27.6514 C21.9142,27.6514 25.2252,25.3994 26.6152,21.8914 L34.5592,21.8914 C32.9712,29.6374 26.4832,35.0004 17.6112,35.0004 C7.2832,35.0004 0.0002,27.7174 0.0002,17.7854 C0.0002,7.8554 7.2832,0.5724 17.6112,0.5724 C26.4832,0.5724 32.9712,5.9354 34.5592,13.6814 L26.6152,13.6814 Z" id="Fill-101" fill="#FFFFFE" mask="url(#mask-2)"></path>
                    </g>
                    <path d="M63.6769,30.786 C63.6769,25.026 59.8369,20.921 54.0769,20.921 C48.3169,20.921 44.4109,25.026 44.4109,30.786 C44.4109,36.546 48.3169,40.651 54.0769,40.651 C59.8369,40.651 63.6769,36.546 63.6769,30.786 Z M71.5559,30.521 C71.5559,41.114 64.4049,48 54.0769,48 C43.7489,48 36.4659,40.717 36.4659,30.786 C36.4659,19.2 44.8079,13.573 52.6199,13.573 C57.5199,13.573 61.4259,15.691 63.5449,19.001 L63.6769,19.001 L63.6769,0.444 L71.5559,0.444 L71.5559,30.521 Z" id="Fill-104" fill="#FFFFFE"></path>
                    <mask id="mask-4" fill="white">
                        <use xlink:href="#path-3"></use>
                    </mask>
                    <g id="Clip-107"></g>
                    <polygon id="Fill-106" fill="#FFFFFE" mask="url(#mask-4)" points="76.95 47.139 84.829 47.139 84.829 14.433 76.95 14.433"></polygon>
                    <path d="M107.1571,23.8344 C106.9591,21.8484 105.1051,20.4584 102.0591,20.4584 C98.5501,20.4584 96.8291,22.0464 96.8291,24.2314 C96.8291,29.9914 115.6981,23.8344 115.6981,37.2744 C115.6981,43.4984 110.3351,48.0004 101.9931,48.0004 C93.6511,48.0004 88.4211,43.5644 88.2221,37.4734 L96.1671,37.4734 C96.2331,39.6584 98.1531,41.1144 101.8611,41.1144 C106.0321,41.1144 107.7531,39.5254 107.7531,37.2744 C107.7531,31.5144 88.8851,38.0024 88.8851,24.2314 C88.8851,18.0744 93.9821,13.5724 101.9271,13.5724 C109.8721,13.5724 114.7711,18.0744 114.9691,23.8344 L107.1571,23.8344 Z" id="Fill-108" fill="#FFFFFE" mask="url(#mask-4)"></path>
                    <path d="M144.0552,26.6814 C142.6652,23.1724 139.3542,20.9214 135.0512,20.9214 C129.2902,20.9214 125.3852,25.0254 125.3852,30.7854 C125.3852,36.5454 129.2902,40.6514 135.0512,40.6514 C139.3542,40.6514 142.6652,38.3994 144.0552,34.8914 L152.0002,34.8914 C150.4112,42.6374 143.9222,48.0004 135.0512,48.0004 C124.7222,48.0004 117.4402,40.7174 117.4402,30.7854 C117.4402,20.8554 124.7222,13.5724 135.0512,13.5724 C143.9222,13.5724 150.4112,18.9354 152.0002,26.6814 L144.0552,26.6814 Z" id="Fill-109" fill="#FFFFFE" mask="url(#mask-4)"></path>
                    <path d="M86.2222,5.3333 C86.2222,8.2783 83.8342,10.6663 80.8892,10.6663 C77.9432,10.6663 75.5552,8.2783 75.5552,5.3333 C75.5552,2.3883 77.9432,0.0003 80.8892,0.0003 C83.8342,0.0003 86.2222,2.3883 86.2222,5.3333" id="Fill-110" fill="#FFFFFE" mask="url(#mask-4)"></path>
                    <path d="M102.2222,5.3333 C102.2222,8.2783 99.8342,10.6663 96.8892,10.6663 C93.9432,10.6663 91.5552,8.2783 91.5552,5.3333 C91.5552,2.3883 93.9432,0.0003 96.8892,0.0003 C99.8342,0.0003 102.2222,2.3883 102.2222,5.3333" id="Fill-111" fill="#FFFFFE" mask="url(#mask-4)"></path>
                    <path d="M118.2222,5.3333 C118.2222,8.2783 115.8342,10.6663 112.8892,10.6663 C109.9432,10.6663 107.5552,8.2783 107.5552,5.3333 C107.5552,2.3883 109.9432,0.0003 112.8892,0.0003 C115.8342,0.0003 118.2222,2.3883 118.2222,5.3333" id="Fill-112" fill="#FFFFFE" mask="url(#mask-4)"></path>
                    <path d="M134.2222,5.3333 C134.2222,8.2783 131.8342,10.6663 128.8892,10.6663 C125.9432,10.6663 123.5552,8.2783 123.5552,5.3333 C123.5552,2.3883 125.9432,0.0003 128.8892,0.0003 C131.8342,0.0003 134.2222,2.3883 134.2222,5.3333" id="Fill-113" fill="#FFFFFE" mask="url(#mask-4)"></path>
                </g>
            </g>
        </g>
    </g>
</svg>